<svg width="1200" height="675" viewBox="0 0 1200 675" fill="none" xmlns="http://www.w3.org/2000/svg">
  <defs>
    <linearGradient id="bg1" x1="89" y1="72" x2="1114" y2="620" gradientUnits="userSpaceOnUse">
      <stop stop-color="#FFF5E5"/>
      <stop offset="1" stop-color="#FFD49C"/>
    </linearGradient>
  </defs>
  <rect width="1200" height="675" rx="44" fill="url(#bg1)"/>
  <circle cx="940" cy="168" r="110" fill="#F59E0B" fill-opacity=".17"/>
  <circle cx="1018" cy="522" r="170" fill="#FDBA74" fill-opacity=".26"/>
  <rect x="86" y="104" width="438" height="468" rx="34" fill="#FFFBF5" stroke="#FCD7A8" stroke-width="2"/>
  <rect x="126" y="156" width="256" height="18" rx="9" fill="#F59E0B" fill-opacity=".18"/>
  <rect x="126" y="212" width="322" height="92" rx="24" fill="#FFF3D6"/>
  <circle cx="173" cy="258" r="26" fill="#F59E0B"/>
  <path d="M162 258L170 266L186 248" stroke="white" stroke-width="10" stroke-linecap="round" stroke-linejoin="round"/>
  <rect x="214" y="236" width="188" height="16" rx="8" fill="#9A3412" fill-opacity=".72"/>
  <rect x="214" y="264" width="138" height="12" rx="6" fill="#9A3412" fill-opacity=".36"/>
  <rect x="126" y="330" width="322" height="92" rx="24" fill="#FFF3D6"/>
  <circle cx="173" cy="376" r="26" fill="#F59E0B"/>
  <path d="M162 376L170 384L186 366" stroke="white" stroke-width="10" stroke-linecap="round" stroke-linejoin="round"/>
  <rect x="214" y="354" width="208" height="16" rx="8" fill="#9A3412" fill-opacity=".72"/>
  <rect x="214" y="382" width="124" height="12" rx="6" fill="#9A3412" fill-opacity=".36"/>
  <rect x="126" y="448" width="322" height="74" rx="24" fill="#FFF3D6"/>
  <rect x="154" y="475" width="48" height="20" rx="10" fill="#F59E0B"/>
  <rect x="214" y="479" width="170" height="12" rx="6" fill="#9A3412" fill-opacity=".56"/>
  <rect x="608" y="154" width="514" height="334" rx="38" fill="#7C2D12"/>
  <rect x="648" y="192" width="182" height="148" rx="26" fill="#FB923C"/>
  <rect x="850" y="192" width="232" height="102" rx="26" fill="#FFEDD5"/>
  <rect x="850" y="314" width="232" height="134" rx="26" fill="#FDE68A"/>
  <circle cx="724" cy="266" r="38" fill="#FFFBEB"/>
  <path d="M724 240V266L742 282" stroke="#EA580C" stroke-width="12" stroke-linecap="round" stroke-linejoin="round"/>
  <path d="M650 382C683 354 722 339 766 339C810 339 849 354 882 382" stroke="#FDBA74" stroke-width="18" stroke-linecap="round"/>
  <text x="86" y="626" fill="#7C2D12" font-family="'FiraGO','Segoe UI',sans-serif" font-size="44" font-weight="700">ყოველდღიური გამოწვევები</text>
  <text x="86" y="84" fill="#9A3412" font-family="'FiraGO','Segoe UI',sans-serif" font-size="22" font-weight="700" letter-spacing="1.5">ACTIVITY</text>
</svg>
