<svg width="1200" height="675" viewBox="0 0 1200 675" fill="none" xmlns="http://www.w3.org/2000/svg">
  <defs>
    <linearGradient id="bg3" x1="76" y1="40" x2="1122" y2="623" gradientUnits="userSpaceOnUse">
      <stop stop-color="#EEF2FF"/>
      <stop offset="1" stop-color="#D1FAE5"/>
    </linearGradient>
  </defs>
  <rect width="1200" height="675" rx="44" fill="url(#bg3)"/>
  <circle cx="1022" cy="160" r="122" fill="#6366F1" fill-opacity=".15"/>
  <circle cx="904" cy="534" r="180" fill="#10B981" fill-opacity=".14"/>
  <path d="M186 210C186 184.49 206.49 164 232 164H418C443.51 164 464 184.49 464 210V270C464 295.51 443.51 316 418 316H232C206.49 316 186 295.51 186 270V210Z" fill="#FEE2E2"/>
  <path d="M546 140C546 114.49 566.49 94 592 94H1002C1027.51 94 1048 114.49 1048 140V452C1048 477.51 1027.51 498 1002 498H592C566.49 498 546 477.51 546 452V140Z" fill="#0F172A"/>
  <path d="M276 316L332 386L390 316" stroke="#EF4444" stroke-width="24" stroke-linecap="round" stroke-linejoin="round"/>
  <circle cx="325" cy="245" r="42" fill="#EF4444"/>
  <path d="M616 166H980" stroke="#475569" stroke-width="16" stroke-linecap="round"/>
  <rect x="616" y="210" width="340" height="74" rx="24" fill="#1E293B"/>
  <rect x="642" y="236" width="150" height="12" rx="6" fill="#A5B4FC"/>
  <rect x="642" y="258" width="238" height="12" rx="6" fill="#64748B"/>
  <rect x="616" y="310" width="340" height="74" rx="24" fill="#1E293B"/>
  <rect x="642" y="336" width="176" height="12" rx="6" fill="#6EE7B7"/>
  <rect x="642" y="358" width="202" height="12" rx="6" fill="#64748B"/>
  <rect x="616" y="410" width="340" height="74" rx="24" fill="#1E293B"/>
  <rect x="642" y="436" width="128" height="12" rx="6" fill="#FDE68A"/>
  <rect x="642" y="458" width="230" height="12" rx="6" fill="#64748B"/>
  <circle cx="996" cy="247" r="30" fill="#6366F1"/>
  <text x="996" y="256" fill="white" font-family="'FiraGO','Segoe UI',sans-serif" font-size="26" font-weight="700" text-anchor="middle">R</text>
  <circle cx="996" cy="347" r="30" fill="#10B981"/>
  <text x="996" y="356" fill="white" font-family="'FiraGO','Segoe UI',sans-serif" font-size="26" font-weight="700" text-anchor="middle">C</text>
  <circle cx="996" cy="447" r="30" fill="#F59E0B"/>
  <text x="996" y="456" fill="white" font-family="'FiraGO','Segoe UI',sans-serif" font-size="26" font-weight="700" text-anchor="middle">T</text>
  <rect x="896" y="410" width="86" height="74" rx="24" fill="#1E293B"/>
  <circle cx="939" cy="447" r="30" fill="#14B8A6"/>
  <text x="939" y="456" fill="white" font-family="'FiraGO','Segoe UI',sans-serif" font-size="26" font-weight="700" text-anchor="middle">F</text>
  <text x="94" y="626" fill="#0F172A" font-family="'FiraGO','Segoe UI',sans-serif" font-size="42" font-weight="700">სწორი პრომპტი, უკეთესი შედეგი</text>
  <text x="94" y="84" fill="#4338CA" font-family="'FiraGO','Segoe UI',sans-serif" font-size="22" font-weight="700" letter-spacing="1.5">LIVE DEMO</text>
</svg>
