<svg width="1200" height="675" viewBox="0 0 1200 675" fill="none" xmlns="http://www.w3.org/2000/svg">
  <defs>
    <linearGradient id="bg4" x1="84" y1="47" x2="1126" y2="625" gradientUnits="userSpaceOnUse">
      <stop stop-color="#E0F2FE"/>
      <stop offset="1" stop-color="#E0F7FA"/>
    </linearGradient>
  </defs>
  <rect width="1200" height="675" rx="44" fill="url(#bg4)"/>
  <circle cx="1044" cy="146" r="108" fill="#0EA5E9" fill-opacity=".16"/>
  <circle cx="910" cy="546" r="184" fill="#06B6D4" fill-opacity=".12"/>
  <rect x="88" y="132" width="446" height="382" rx="36" fill="#082F49"/>
  <rect x="132" y="178" width="214" height="118" rx="26" fill="#0EA5E9"/>
  <rect x="364" y="178" width="126" height="118" rx="26" fill="#E0F2FE"/>
  <rect x="132" y="322" width="358" height="148" rx="26" fill="#0F172A"/>
  <rect x="162" y="356" width="220" height="14" rx="7" fill="#7DD3FC"/>
  <rect x="162" y="382" width="284" height="12" rx="6" fill="#64748B"/>
  <rect x="162" y="406" width="196" height="12" rx="6" fill="#64748B"/>
  <path d="M392 218L428 238L392 258V218Z" fill="#0369A1"/>
  <path d="M458 212C470 224 478 242 478 262C478 282 470 300 458 312" stroke="#0369A1" stroke-width="12" stroke-linecap="round"/>
  <path d="M612 172C612 146.49 632.49 126 658 126H1016C1041.51 126 1062 146.49 1062 172V464C1062 489.51 1041.51 510 1016 510H658C632.49 510 612 489.51 612 464V172Z" fill="#FFFFFF" stroke="#BAE6FD" stroke-width="2"/>
  <rect x="650" y="168" width="380" height="44" rx="22" fill="#EFF6FF"/>
  <rect x="676" y="182" width="90" height="14" rx="7" fill="#2563EB"/>
  <rect x="650" y="236" width="168" height="96" rx="22" fill="#E0F2FE"/>
  <rect x="838" y="236" width="168" height="96" rx="22" fill="#ECFEFF"/>
  <rect x="650" y="352" width="356" height="116" rx="22" fill="#F8FAFC"/>
  <path d="M734 278H914" stroke="#0EA5E9" stroke-width="10" stroke-linecap="round"/>
  <path d="M894 260L918 278L894 296" stroke="#0EA5E9" stroke-width="10" stroke-linecap="round" stroke-linejoin="round"/>
  <text x="734" y="300" fill="#0369A1" font-family="'FiraGO','Segoe UI',sans-serif" font-size="26" font-weight="700" text-anchor="middle">KA → EN</text>
  <rect x="678" y="384" width="250" height="14" rx="7" fill="#0F172A" fill-opacity=".72"/>
  <rect x="678" y="412" width="294" height="12" rx="6" fill="#64748B"/>
  <rect x="678" y="436" width="186" height="12" rx="6" fill="#64748B"/>
  <text x="88" y="626" fill="#082F49" font-family="'FiraGO','Segoe UI',sans-serif" font-size="42" font-weight="700">კონტენტი, თარგმანი და ადაპტაცია</text>
  <text x="88" y="84" fill="#0369A1" font-family="'FiraGO','Segoe UI',sans-serif" font-size="22" font-weight="700" letter-spacing="1.5">LIVE DEMO</text>
</svg>
