<svg width="1200" height="675" viewBox="0 0 1200 675" fill="none" xmlns="http://www.w3.org/2000/svg">
  <defs>
    <linearGradient id="bg2" x1="99" y1="55" x2="1128" y2="632" gradientUnits="userSpaceOnUse">
      <stop stop-color="#E0F2FE"/>
      <stop offset="1" stop-color="#DBEAFE"/>
    </linearGradient>
  </defs>
  <rect width="1200" height="675" rx="44" fill="url(#bg2)"/>
  <circle cx="1012" cy="132" r="98" fill="#38BDF8" fill-opacity=".18"/>
  <circle cx="914" cy="555" r="180" fill="#60A5FA" fill-opacity=".18"/>
  <rect x="94" y="110" width="1012" height="414" rx="34" fill="#0F172A"/>
  <rect x="136" y="148" width="272" height="268" rx="30" fill="#DCFCE7"/>
  <rect x="464" y="148" width="272" height="268" rx="30" fill="#FFEDD5"/>
  <rect x="792" y="148" width="272" height="268" rx="30" fill="#DBEAFE"/>
  <rect x="168" y="194" width="208" height="18" rx="9" fill="#166534" fill-opacity=".25"/>
  <rect x="496" y="194" width="208" height="18" rx="9" fill="#9A3412" fill-opacity=".23"/>
  <rect x="824" y="194" width="208" height="18" rx="9" fill="#1D4ED8" fill-opacity=".22"/>
  <circle cx="272" cy="286" r="56" fill="#22C55E"/>
  <path d="M240 288H304" stroke="white" stroke-width="16" stroke-linecap="round"/>
  <path d="M272 256V320" stroke="white" stroke-width="16" stroke-linecap="round"/>
  <circle cx="600" cy="286" r="56" fill="#F97316"/>
  <path d="M568 270L600 302L632 270" stroke="white" stroke-width="16" stroke-linecap="round" stroke-linejoin="round"/>
  <circle cx="928" cy="286" r="56" fill="#2563EB"/>
  <path d="M928 250L946 322H910L928 250Z" fill="white"/>
  <rect x="176" y="368" width="192" height="12" rx="6" fill="#166534" fill-opacity=".45"/>
  <rect x="504" y="368" width="192" height="12" rx="6" fill="#9A3412" fill-opacity=".45"/>
  <rect x="832" y="368" width="192" height="12" rx="6" fill="#1D4ED8" fill-opacity=".45"/>
  <path d="M408 282H456" stroke="#38BDF8" stroke-width="10" stroke-linecap="round"/>
  <path d="M736 282H784" stroke="#38BDF8" stroke-width="10" stroke-linecap="round"/>
  <path d="M432 258L456 282L432 306" stroke="#38BDF8" stroke-width="10" stroke-linecap="round" stroke-linejoin="round"/>
  <path d="M760 258L784 282L760 306" stroke="#38BDF8" stroke-width="10" stroke-linecap="round" stroke-linejoin="round"/>
  <text x="94" y="626" fill="#0F172A" font-family="'FiraGO','Segoe UI',sans-serif" font-size="42" font-weight="700">პლატფორმების შედარება</text>
  <text x="94" y="84" fill="#1D4ED8" font-family="'FiraGO','Segoe UI',sans-serif" font-size="22" font-weight="700" letter-spacing="1.5">LIVE DEMO</text>
</svg>
