<svg width="1200" height="675" viewBox="0 0 1200 675" fill="none" xmlns="http://www.w3.org/2000/svg">
  <defs>
    <linearGradient id="bg6" x1="82" y1="44" x2="1128" y2="634" gradientUnits="userSpaceOnUse">
      <stop stop-color="#E0F2FE"/>
      <stop offset="1" stop-color="#DDD6FE"/>
    </linearGradient>
  </defs>
  <rect width="1200" height="675" rx="44" fill="url(#bg6)"/>
  <circle cx="1018" cy="140" r="118" fill="#2563EB" fill-opacity=".14"/>
  <circle cx="904" cy="548" r="184" fill="#8B5CF6" fill-opacity=".12"/>
  <rect x="94" y="122" width="414" height="412" rx="38" fill="#0F172A"/>
  <rect x="140" y="170" width="322" height="218" rx="30" fill="#111827"/>
  <circle cx="302" cy="279" r="66" fill="#2563EB"/>
  <path d="M282 244L348 279L282 314V244Z" fill="white"/>
  <rect x="170" y="430" width="266" height="18" rx="9" fill="#64748B"/>
  <rect x="170" y="464" width="180" height="14" rx="7" fill="#475569"/>
  <rect x="582" y="126" width="524" height="170" rx="32" fill="#FFFFFF" stroke="#BFDBFE" stroke-width="2"/>
  <rect x="620" y="164" width="164" height="94" rx="24" fill="#DBEAFE"/>
  <rect x="814" y="164" width="254" height="20" rx="10" fill="#1D4ED8" fill-opacity=".2"/>
  <rect x="814" y="198" width="222" height="16" rx="8" fill="#1D4ED8" fill-opacity=".12"/>
  <rect x="814" y="226" width="182" height="16" rx="8" fill="#1D4ED8" fill-opacity=".12"/>
  <rect x="582" y="322" width="524" height="188" rx="32" fill="#F8FAFC"/>
  <path d="M650 412C664 412 676 398 676 382C676 366 688 352 704 352C720 352 732 366 732 382C732 398 744 412 760 412C776 412 788 398 788 382C788 366 800 352 816 352C832 352 844 366 844 382C844 398 856 412 870 412" stroke="#8B5CF6" stroke-width="16" stroke-linecap="round"/>
  <rect x="900" y="350" width="160" height="132" rx="26" fill="#EDE9FE"/>
  <rect x="930" y="378" width="100" height="12" rx="6" fill="#6D28D9"/>
  <rect x="930" y="406" width="72" height="12" rx="6" fill="#A78BFA"/>
  <rect x="930" y="434" width="84" height="12" rx="6" fill="#A78BFA"/>
  <text x="94" y="626" fill="#0F172A" font-family="'FiraGO','Segoe UI',sans-serif" font-size="42" font-weight="700">ვიდეო, აუდიო და ლოგისტიკა</text>
  <text x="94" y="84" fill="#1D4ED8" font-family="'FiraGO','Segoe UI',sans-serif" font-size="22" font-weight="700" letter-spacing="1.5">LIVE DEMO</text>
</svg>
