<svg width="1200" height="675" viewBox="0 0 1200 675" fill="none" xmlns="http://www.w3.org/2000/svg">
  <defs>
    <linearGradient id="bg7" x1="88" y1="50" x2="1124" y2="629" gradientUnits="userSpaceOnUse">
      <stop stop-color="#E0E7FF"/>
      <stop offset="1" stop-color="#F8FAFC"/>
    </linearGradient>
  </defs>
  <rect width="1200" height="675" rx="44" fill="url(#bg7)"/>
  <circle cx="1032" cy="146" r="108" fill="#4F46E5" fill-opacity=".16"/>
  <circle cx="892" cy="556" r="178" fill="#64748B" fill-opacity=".12"/>
  <rect x="92" y="110" width="1012" height="434" rx="38" fill="#0F172A"/>
  <rect x="136" y="154" width="596" height="346" rx="30" fill="#FFFFFF"/>
  <rect x="172" y="198" width="210" height="136" rx="24" fill="#E0E7FF"/>
  <rect x="404" y="198" width="290" height="26" rx="13" fill="#C7D2FE"/>
  <rect x="404" y="244" width="248" height="18" rx="9" fill="#CBD5E1"/>
  <rect x="404" y="278" width="206" height="18" rx="9" fill="#CBD5E1"/>
  <rect x="172" y="366" width="522" height="92" rx="24" fill="#F8FAFC"/>
  <rect x="198" y="394" width="144" height="12" rx="6" fill="#4F46E5"/>
  <rect x="198" y="420" width="220" height="12" rx="6" fill="#94A3B8"/>
  <rect x="770" y="154" width="290" height="346" rx="30" fill="#111827"/>
  <rect x="806" y="192" width="218" height="54" rx="18" fill="#4F46E5"/>
  <rect x="806" y="272" width="98" height="98" rx="22" fill="#E0E7FF"/>
  <rect x="926" y="272" width="98" height="98" rx="22" fill="#DBEAFE"/>
  <rect x="806" y="392" width="218" height="72" rx="22" fill="#1E293B"/>
  <path d="M252 232H302V282H252V232Z" fill="#4F46E5"/>
  <path d="M252 294H362" stroke="#4F46E5" stroke-width="12" stroke-linecap="round"/>
  <text x="92" y="626" fill="#0F172A" font-family="'FiraGO','Segoe UI',sans-serif" font-size="42" font-weight="700">სწრაფი პროტოტიპი იდეიდან ეკრანამდე</text>
  <text x="92" y="84" fill="#4338CA" font-family="'FiraGO','Segoe UI',sans-serif" font-size="22" font-weight="700" letter-spacing="1.5">LIVE DEMO</text>
</svg>
