<svg width="1200" height="675" viewBox="0 0 1200 675" fill="none" xmlns="http://www.w3.org/2000/svg">
  <defs>
    <linearGradient id="bg5" x1="90" y1="43" x2="1136" y2="631" gradientUnits="userSpaceOnUse">
      <stop stop-color="#DBEAFE"/>
      <stop offset="1" stop-color="#FDE68A"/>
    </linearGradient>
  </defs>
  <rect width="1200" height="675" rx="44" fill="url(#bg5)"/>
  <circle cx="1018" cy="156" r="112" fill="#1D4ED8" fill-opacity=".14"/>
  <circle cx="898" cy="552" r="190" fill="#F59E0B" fill-opacity=".18"/>
  <rect x="94" y="118" width="430" height="430" rx="40" fill="#0F172A"/>
  <rect x="140" y="162" width="338" height="342" rx="28" fill="#111827" stroke="#334155" stroke-width="2"/>
  <rect x="174" y="198" width="270" height="146" rx="20" fill="#2563EB"/>
  <path d="M202 312L254 250L304 292L356 228L416 312H202Z" fill="#93C5FD"/>
  <circle cx="242" cy="238" r="20" fill="#FDE68A"/>
  <rect x="174" y="366" width="270" height="34" rx="17" fill="#1E293B"/>
  <rect x="174" y="416" width="198" height="18" rx="9" fill="#475569"/>
  <rect x="600" y="126" width="506" height="166" rx="32" fill="#FFFBEB"/>
  <rect x="638" y="162" width="220" height="94" rx="22" fill="#F59E0B"/>
  <rect x="878" y="162" width="190" height="18" rx="9" fill="#B45309" fill-opacity=".25"/>
  <rect x="878" y="194" width="150" height="18" rx="9" fill="#B45309" fill-opacity=".18"/>
  <rect x="878" y="226" width="174" height="18" rx="9" fill="#B45309" fill-opacity=".18"/>
  <rect x="600" y="324" width="506" height="182" rx="32" fill="#FFFFFF" stroke="#FCD34D" stroke-width="2"/>
  <rect x="640" y="356" width="198" height="110" rx="22" fill="#EFF6FF"/>
  <rect x="862" y="356" width="198" height="110" rx="22" fill="#FFFBEB"/>
  <rect x="674" y="390" width="130" height="12" rx="6" fill="#2563EB"/>
  <rect x="674" y="416" width="98" height="12" rx="6" fill="#93C5FD"/>
  <rect x="896" y="390" width="130" height="12" rx="6" fill="#F59E0B"/>
  <rect x="896" y="416" width="98" height="12" rx="6" fill="#FCD34D"/>
  <text x="94" y="626" fill="#0F172A" font-family="'FiraGO','Segoe UI',sans-serif" font-size="42" font-weight="700">ვიზუალური კონტენტი და სლაიდები</text>
  <text x="94" y="84" fill="#1D4ED8" font-family="'FiraGO','Segoe UI',sans-serif" font-size="22" font-weight="700" letter-spacing="1.5">LIVE DEMO</text>
</svg>
