<svg width="1200" height="675" viewBox="0 0 1200 675" fill="none" xmlns="http://www.w3.org/2000/svg">
  <defs>
    <linearGradient id="bg8" x1="86" y1="47" x2="1124" y2="621" gradientUnits="userSpaceOnUse">
      <stop stop-color="#FFF7ED"/>
      <stop offset="1" stop-color="#FEF3C7"/>
    </linearGradient>
  </defs>
  <rect width="1200" height="675" rx="44" fill="url(#bg8)"/>
  <circle cx="1030" cy="144" r="110" fill="#F59E0B" fill-opacity=".15"/>
  <circle cx="896" cy="550" r="184" fill="#FB923C" fill-opacity=".12"/>
  <rect x="96" y="132" width="424" height="396" rx="38" fill="#7C2D12"/>
  <circle cx="308" cy="246" r="86" fill="#F59E0B"/>
  <path d="M308 190L324 230L368 234L334 262L344 306L308 282L272 306L282 262L248 234L292 230L308 190Z" fill="#FFF7ED"/>
  <rect x="154" y="378" width="308" height="24" rx="12" fill="#FCD34D"/>
  <rect x="154" y="420" width="220" height="16" rx="8" fill="#FDBA74"/>
  <rect x="590" y="126" width="520" height="184" rx="32" fill="#FFFFFF" stroke="#FCD34D" stroke-width="2"/>
  <rect x="630" y="166" width="176" height="104" rx="24" fill="#FFF7ED"/>
  <rect x="834" y="166" width="236" height="20" rx="10" fill="#B45309" fill-opacity=".2"/>
  <rect x="834" y="200" width="190" height="16" rx="8" fill="#B45309" fill-opacity=".12"/>
  <rect x="834" y="228" width="164" height="16" rx="8" fill="#B45309" fill-opacity=".12"/>
  <rect x="590" y="334" width="520" height="176" rx="32" fill="#FFFBEB"/>
  <path d="M666 424H770L824 370" stroke="#EA580C" stroke-width="14" stroke-linecap="round" stroke-linejoin="round"/>
  <path d="M794 370H824V400" stroke="#EA580C" stroke-width="14" stroke-linecap="round" stroke-linejoin="round"/>
  <circle cx="678" cy="424" r="18" fill="#F59E0B"/>
  <circle cx="770" cy="424" r="18" fill="#F59E0B"/>
  <circle cx="860" cy="334" r="18" fill="#F59E0B"/>
  <text x="96" y="626" fill="#7C2D12" font-family="'FiraGO','Segoe UI',sans-serif" font-size="42" font-weight="700">ჩემი პირველი პრაქტიკული ნაბიჯი</text>
  <text x="96" y="84" fill="#9A3412" font-family="'FiraGO','Segoe UI',sans-serif" font-size="22" font-weight="700" letter-spacing="1.5">ACTIVITY</text>
</svg>
