<svg width="1200" height="675" viewBox="0 0 1200 675" fill="none" xmlns="http://www.w3.org/2000/svg">
  <defs>
    <linearGradient id="bg9" x1="80" y1="44" x2="1126" y2="631" gradientUnits="userSpaceOnUse">
      <stop stop-color="#FEF9C3"/>
      <stop offset="1" stop-color="#FDE68A"/>
    </linearGradient>
  </defs>
  <rect width="1200" height="675" rx="44" fill="url(#bg9)"/>
  <circle cx="1006" cy="150" r="112" fill="#EAB308" fill-opacity=".18"/>
  <circle cx="894" cy="548" r="182" fill="#F59E0B" fill-opacity=".12"/>
  <rect x="92" y="126" width="490" height="382" rx="38" fill="#FFFFFF" stroke="#FDE68A" stroke-width="2"/>
  <path d="M154 202C154 177.699 173.699 158 198 158H380C404.301 158 424 177.699 424 202V274C424 298.301 404.301 318 380 318H266L220 360V318H198C173.699 318 154 298.301 154 274V202Z" fill="#FDE68A"/>
  <text x="288" y="254" fill="#854D0E" font-family="'FiraGO','Segoe UI',sans-serif" font-size="92" font-weight="700" text-anchor="middle">?</text>
  <rect x="154" y="392" width="364" height="18" rx="9" fill="#CA8A04" fill-opacity=".26"/>
  <rect x="154" y="424" width="248" height="14" rx="7" fill="#CA8A04" fill-opacity=".18"/>
  <rect x="632" y="136" width="476" height="362" rx="38" fill="#78350F"/>
  <circle cx="736" cy="414" r="34" fill="#FEF3C7"/>
  <circle cx="872" cy="414" r="34" fill="#FEF3C7"/>
  <circle cx="1008" cy="414" r="34" fill="#FEF3C7"/>
  <rect x="688" y="176" width="364" height="150" rx="28" fill="#F59E0B"/>
  <path d="M756 218C756 196.461 773.461 179 795 179H945C966.539 179 984 196.461 984 218V256C984 277.539 966.539 295 945 295H854L820 324V295H795C773.461 295 756 277.539 756 256V218Z" fill="#FFF7ED"/>
  <text x="870" y="250" fill="#B45309" font-family="'FiraGO','Segoe UI',sans-serif" font-size="72" font-weight="700" text-anchor="middle">?</text>
  <text x="92" y="626" fill="#713F12" font-family="'FiraGO','Segoe UI',sans-serif" font-size="42" font-weight="700">კითხვები, პასუხები და დისკუსია</text>
  <text x="92" y="84" fill="#A16207" font-family="'FiraGO','Segoe UI',sans-serif" font-size="22" font-weight="700" letter-spacing="1.5">Q&amp;A</text>
</svg>
